<svg xmlns="http://www.w3.org/2000/svg" width="226.25" height="64" viewBox="0 0 226.25 64">
  <g id="Group_4" data-name="Group 4" transform="translate(94.557 516.2)">
    <g id="Group_1" data-name="Group 1" transform="translate(-14.244 -504.311)">
      <path id="Path_1" data-name="Path 1" d="M-57.565-507.433a2.254,2.254,0,0,1,2.2-2.26,2.269,2.269,0,0,1,2.262,2.26v33.474H-32.58a2.068,2.068,0,0,1,2.034,2.086,2.025,2.025,0,0,1-2.034,2.037H-55.361a2.256,2.256,0,0,1-2.2-2.262Z" transform="translate(57.565 511.932)"/>
      <path id="Path_2" data-name="Path 2" d="M-42.783-508.4a2.353,2.353,0,0,1,2.547-2.321,2.37,2.37,0,0,1,2.6,2.321v.733a2.4,2.4,0,0,1-2.6,2.319,2.385,2.385,0,0,1-2.547-2.319Zm.4,11.081a2.2,2.2,0,0,1,2.149-2.206,2.169,2.169,0,0,1,2.2,2.206v25.38a2.128,2.128,0,0,1-2.149,2.2,2.172,2.172,0,0,1-2.2-2.2Z" transform="translate(74.876 510.724)"/>
      <path id="Path_3" data-name="Path 3" d="M-24.371-475.608H-24.6a2.7,2.7,0,0,1-2.486-1.865l-10.968-24.759a4.625,4.625,0,0,1-.282-1.187,2.2,2.2,0,0,1,2.206-2.147,2.214,2.214,0,0,1,2.206,1.7l9.44,22.837,9.607-22.953a2.089,2.089,0,0,1,2.036-1.583,2.148,2.148,0,0,1,2.149,2.147,2.952,2.952,0,0,1-.228,1.073l-11.023,24.874a2.633,2.633,0,0,1-2.432,1.865" transform="translate(80.087 516.763)"/>
      <path id="Path_4" data-name="Path 4" d="M-24.451-484.478v-.117c0-6.157,5.087-9.433,12.495-9.433a30.993,30.993,0,0,1,8.986,1.244V-493.8c0-5.256-3.222-7.97-8.706-7.97a18.272,18.272,0,0,0-7.573,1.637,2.188,2.188,0,0,1-.792.176,1.936,1.936,0,0,1-1.919-1.869,1.988,1.988,0,0,1,1.185-1.809,23.089,23.089,0,0,1,9.555-1.982c4.125,0,7.291,1.073,9.438,3.225,1.98,1.982,3,4.8,3,8.539v15.992a2.067,2.067,0,0,1-2.091,2.149,2.009,2.009,0,0,1-2.093-2.032v-2.662a12.794,12.794,0,0,1-10.569,5.031c-5.428,0-10.912-3.1-10.912-9.1m21.537-2.258v-2.829a30.592,30.592,0,0,0-8.593-1.244c-5.482,0-8.535,2.378-8.535,6.049v.115c0,3.674,3.391,5.818,7.349,5.818,5.369,0,9.779-3.276,9.779-7.909" transform="translate(96.345 516.701)"/>
      <path id="Path_5" data-name="Path 5" d="M-9.923-503.3A2.2,2.2,0,0,1-7.776-505.5,2.168,2.168,0,0,1-5.57-503.3v5.482c2.149-4.861,6.39-7.8,10.059-7.8a2.092,2.092,0,0,1,2.149,2.206,2.157,2.157,0,0,1-1.924,2.206c-5.649.682-10.284,4.915-10.284,13.339v9.95a2.158,2.158,0,0,1-2.147,2.206,2.175,2.175,0,0,1-2.206-2.206Z" transform="translate(113.358 516.701)"/>
      <path id="Path_6" data-name="Path 6" d="M-2.167-484.478v-.117c0-6.157,5.083-9.433,12.49-9.433a31,31,0,0,1,8.988,1.244V-493.8c0-5.256-3.222-7.97-8.706-7.97a18.257,18.257,0,0,0-7.573,1.637,2.187,2.187,0,0,1-.79.176,1.935,1.935,0,0,1-1.921-1.869,1.989,1.989,0,0,1,1.188-1.809,23.056,23.056,0,0,1,9.553-1.982c4.123,0,7.293,1.073,9.44,3.225,1.976,1.982,2.994,4.8,2.994,8.539v15.992a2.066,2.066,0,0,1-2.086,2.149,2.006,2.006,0,0,1-2.1-2.032v-2.662a12.793,12.793,0,0,1-10.573,5.031c-5.426,0-10.908-3.1-10.908-9.1m21.533-2.258v-2.829a30.592,30.592,0,0,0-8.593-1.244c-5.484,0-8.532,2.378-8.532,6.049v.115c0,3.674,3.391,5.818,7.347,5.818,5.373,0,9.779-3.276,9.779-7.909" transform="translate(122.441 516.701)"/>
    </g>
    <g id="Group_2" data-name="Group 2" transform="translate(-94.557 -516.2)">
      <path id="Path_7" data-name="Path 7" d="M-82.331-489.885a23.187,23.187,0,0,0-.148,6.865h0v0h0C-82.263-485.363-81.864-487.638-82.331-489.885Z" transform="translate(108.491 547.018)" fill="#91ca00"/>
      <path id="Path_8" data-name="Path 8" d="M-79.158-490.124a45.408,45.408,0,0,1,7.1-8.363c-2.66-8.37-5.28-16.005-5.549-17.482-.274,1.164-4.084,9.377-7.766,18.348A42.946,42.946,0,0,1-79.158-490.124Z" transform="translate(105.312 516.471)" fill="#91ca00"/>
      <path id="Path_9" data-name="Path 9" d="M-56.6-491.731c.015-3.241-3-20.092-2.41-24.469-4.44,7.849-10.764,12.632-16.329,17.984,2.881,9.057,5.805,18.977,5.849,22.89.1,10.165-10.408,14.835-13.09,23.126h0c7.453-9.127,20.554-10.5,24.618-20.771C-55.251-479.836-56.638-485.448-56.6-491.731Z" transform="translate(108.589 516.2)" fill="#91ca00"/>
      <path id="Path_10" data-name="Path 10" d="M-74.62-497.357c-5.764-5.709-12.529-10.575-17.2-18.838.595,4.372-2.425,21.225-2.41,24.462.035,6.287-1.353,11.9,1.361,18.76C-88.808-462.7-76-461.328-68.545-452.209h0c-3.461-9.116-12.81-13.361-13.083-22.405C-81.76-478.911-78.252-488.5-74.62-497.357Z" transform="translate(94.557 516.206)" fill="#91ca00"/>
      <path id="Path_11" data-name="Path 11" d="M-62.427-485.027c-.043-3.912-2.968-13.832-5.849-22.89a45.419,45.419,0,0,0-7.1,8.363,30.565,30.565,0,0,1,2.829,5.662c3.465,9.26-1.138,17.008-2.822,25.124-1.687-8.12-6.3-15.873-2.829-25.137a30.549,30.549,0,0,1,2.822-5.649,42.94,42.94,0,0,0-6.216-7.5c-3.632,8.854-7.141,18.446-7.008,22.743.274,9.044,9.622,13.289,13.083,22.405v0C-72.836-470.192-62.326-474.862-62.427-485.027Z" transform="translate(101.53 525.9)" fill="#509e00"/>
      <path id="Path_12" data-name="Path 12" d="M-80.3-473.279c1.685-8.116,6.288-15.864,2.822-25.124a30.565,30.565,0,0,0-2.829-5.662,30.552,30.552,0,0,0-2.822,5.649C-86.6-489.152-81.989-481.4-80.3-473.279Z" transform="translate(106.463 530.411)" fill="#2a7d02"/>
    </g>
  </g>
</svg>
