<svg xmlns="http://www.w3.org/2000/svg" width="113.125" height="32" viewBox="0 0 113.125 32">
  <g id="Group_5" data-name="Group 5" transform="translate(94.557 516.2)">
    <g id="Group_1" data-name="Group 1" transform="translate(-54.401 -510.255)">
      <path id="Path_1" data-name="Path 1" d="M-57.565-508.563a1.127,1.127,0,0,1,1.1-1.13,1.134,1.134,0,0,1,1.131,1.13v16.737h10.259a1.034,1.034,0,0,1,1.017,1.043,1.013,1.013,0,0,1-1.017,1.018H-56.463a1.128,1.128,0,0,1-1.1-1.131Z" transform="translate(57.565 510.813)"/>
      <path id="Path_2" data-name="Path 2" d="M-42.783-509.563a1.177,1.177,0,0,1,1.273-1.16,1.185,1.185,0,0,1,1.3,1.16v.367a1.2,1.2,0,0,1-1.3,1.159,1.193,1.193,0,0,1-1.273-1.159Zm.2,5.541a1.1,1.1,0,0,1,1.075-1.1,1.084,1.084,0,0,1,1.1,1.1v12.69a1.064,1.064,0,0,1-1.075,1.1,1.086,1.086,0,0,1-1.1-1.1Z" transform="translate(58.83 510.724)"/>
      <path id="Path_3" data-name="Path 3" d="M-31.352-490.588h-.113a1.35,1.35,0,0,1-1.243-.932l-5.484-12.38a2.312,2.312,0,0,1-.141-.594,1.1,1.1,0,0,1,1.1-1.073,1.107,1.107,0,0,1,1.1.849l4.72,11.419,4.8-11.476a1.044,1.044,0,0,1,1.018-.791,1.074,1.074,0,0,1,1.075,1.073,1.476,1.476,0,0,1-.114.536l-5.511,12.437a1.317,1.317,0,0,1-1.216.932" transform="translate(59.21 511.165)"/>
      <path id="Path_4" data-name="Path 4" d="M-24.451-495.049v-.059c0-3.079,2.543-4.717,6.247-4.717a15.5,15.5,0,0,1,4.493.622v-.509c0-2.628-1.611-3.985-4.353-3.985a9.136,9.136,0,0,0-3.786.818,1.094,1.094,0,0,1-.4.088.968.968,0,0,1-.96-.935.994.994,0,0,1,.593-.9,11.544,11.544,0,0,1,4.777-.991,6.4,6.4,0,0,1,4.719,1.612,5.766,5.766,0,0,1,1.5,4.269v8a1.033,1.033,0,0,1-1.045,1.075,1,1,0,0,1-1.046-1.016v-1.331A6.4,6.4,0,0,1-19-490.5c-2.714,0-5.456-1.552-5.456-4.55m10.769-1.129v-1.415a15.3,15.3,0,0,0-4.3-.622c-2.741,0-4.267,1.189-4.267,3.024v.058c0,1.837,1.7,2.909,3.675,2.909,2.685,0,4.889-1.638,4.889-3.955" transform="translate(60.398 511.161)"/>
      <path id="Path_5" data-name="Path 5" d="M-9.923-504.459a1.1,1.1,0,0,1,1.074-1.1,1.084,1.084,0,0,1,1.1,1.1v2.741c1.075-2.431,3.195-3.9,5.029-3.9a1.046,1.046,0,0,1,1.075,1.1,1.079,1.079,0,0,1-.962,1.1c-2.825.341-5.142,2.458-5.142,6.669v4.975a1.079,1.079,0,0,1-1.074,1.1,1.087,1.087,0,0,1-1.1-1.1Z" transform="translate(61.641 511.161)"/>
      <path id="Path_6" data-name="Path 6" d="M-2.167-495.049v-.059c0-3.079,2.541-4.717,6.245-4.717a15.5,15.5,0,0,1,4.494.622v-.509c0-2.628-1.611-3.985-4.353-3.985a9.128,9.128,0,0,0-3.786.818,1.093,1.093,0,0,1-.4.088.967.967,0,0,1-.961-.935,1,1,0,0,1,.594-.9,11.528,11.528,0,0,1,4.776-.991,6.406,6.406,0,0,1,4.72,1.612,5.775,5.775,0,0,1,1.5,4.269v8a1.033,1.033,0,0,1-1.043,1.075,1,1,0,0,1-1.048-1.016v-1.331A6.4,6.4,0,0,1,3.287-490.5c-2.713,0-5.454-1.552-5.454-4.55M8.6-496.178v-1.415a15.3,15.3,0,0,0-4.3-.622c-2.742,0-4.266,1.189-4.266,3.024v.058c0,1.837,1.7,2.909,3.673,2.909,2.687,0,4.889-1.638,4.889-3.955" transform="translate(62.304 511.161)"/>
    </g>
    <g id="Group_2" data-name="Group 2" transform="translate(-94.557 -516.2)">
      <path id="Path_7" data-name="Path 7" d="M-82.5-489.885a11.594,11.594,0,0,0-.074,3.433h0A11.637,11.637,0,0,0-82.5-489.885Z" transform="translate(95.575 518.451)" fill="#91ca00"/>
      <path id="Path_8" data-name="Path 8" d="M-82.266-503.047a22.7,22.7,0,0,1,3.55-4.182c-1.33-4.185-2.64-8-2.775-8.741-.137.582-2.042,4.688-3.883,9.174A21.471,21.471,0,0,1-82.266-503.047Z" transform="translate(95.343 516.22)" fill="#91ca00"/>
      <path id="Path_9" data-name="Path 9" d="M-69.586-503.966c.008-1.621-1.5-10.046-1.2-12.234-2.22,3.925-5.382,6.316-8.164,8.992,1.44,4.529,2.9,9.488,2.924,11.445.051,5.083-5.2,7.417-6.545,11.563h0c3.727-4.564,10.277-5.249,12.309-10.385C-68.913-498.018-69.607-500.824-69.586-503.966Z" transform="translate(95.582 516.2)" fill="#91ca00"/>
      <path id="Path_10" data-name="Path 10" d="M-84.588-506.776c-2.882-2.855-6.265-5.287-8.6-9.419.3,2.186-1.213,10.612-1.2,12.231.017,3.144-.676,5.95.681,9.38,2.032,5.136,8.435,5.823,12.164,10.382h0c-1.73-4.558-6.4-6.68-6.542-11.2C-88.159-497.553-86.4-502.349-84.588-506.776Z" transform="translate(94.557 516.201)" fill="#91ca00"/>
      <path id="Path_11" data-name="Path 11" d="M-75.516-496.472c-.022-1.956-1.484-6.916-2.924-11.445a22.71,22.71,0,0,0-3.55,4.182,15.282,15.282,0,0,1,1.414,2.831c1.733,4.63-.569,8.5-1.411,12.562-.844-4.06-3.148-7.937-1.414-12.569a15.274,15.274,0,0,1,1.411-2.824,21.47,21.47,0,0,0-3.108-3.749c-1.816,4.427-3.57,9.223-3.5,11.371.137,4.522,4.811,6.644,6.542,11.2h0C-80.72-489.055-75.465-491.389-75.516-496.472Z" transform="translate(95.067 516.909)" fill="#509e00"/>
      <path id="Path_12" data-name="Path 12" d="M-82.347-488.672c.842-4.058,3.144-7.932,1.411-12.562a15.282,15.282,0,0,0-1.414-2.831,15.277,15.277,0,0,0-1.411,2.824C-85.5-496.608-83.19-492.732-82.347-488.672Z" transform="translate(95.427 517.238)" fill="#2a7d02"/>
    </g>
  </g>
</svg>
